<svg xmlns="http://www.w3.org/2000/svg" width="32.447" height="30.804" viewBox="0 0 32.447 30.804"><defs><style>.a{fill:#222;stroke:#222;stroke-width:0.4px;}</style></defs><g transform="translate(0.241 0.204)"><path class="a" d="M31.815,18.946a1.024,1.024,0,0,0-.8-.443l-19.85-.864a1.036,1.036,0,0,0-.088,2.071l18.506.805-3.639,11.46H9.754L6.828,15.9a1.034,1.034,0,0,0-.635-.777L1.4,13.22a1.025,1.025,0,0,0-1.331.586,1.04,1.04,0,0,0,.58,1.344l4.26,1.689L7.889,33.2a1.03,1.03,0,0,0,1.01.849h.494L8.265,37.21A.869.869,0,0,0,8.37,38a.853.853,0,0,0,.7.367h.791a3.08,3.08,0,1,0,4.579,0h6.716a3.08,3.08,0,1,0,4.579,0H26.7a.864.864,0,0,0,0-1.727H10.287l.924-2.591H26.695a1.027,1.027,0,0,0,.978-.72l4.278-13.473A1.042,1.042,0,0,0,31.815,18.946ZM12.15,41.821a1.382,1.382,0,1,1,1.369-1.382A1.377,1.377,0,0,1,12.15,41.821Zm11.294,0a1.382,1.382,0,1,1,1.369-1.382A1.377,1.377,0,0,1,23.444,41.821Z" transform="translate(0 -13.148)"/></g></svg>