<svg xmlns="http://www.w3.org/2000/svg" width="21.697" height="14.127" viewBox="0 0 21.697 14.127"><path d="M28.641,35a.373.373,0,0,0,.02-.116V21.516a.371.371,0,0,0-.02-.116c0-.005,0-.01,0-.015a.375.375,0,0,0-.069-.116s0-.005,0-.007l0,0a.379.379,0,0,0-.111-.081l-.009-.005a.372.372,0,0,0-.129-.031H7.317a.377.377,0,0,0-.13.031l-.007,0a.373.373,0,0,0-.113.082l0,0s0,0,0,.007a.377.377,0,0,0-.07.116c0,.005,0,.01,0,.015a.371.371,0,0,0-.02.116V34.889a.374.374,0,0,0,.021.118l0,.015a.378.378,0,0,0,.07.116l0,.007.005,0a.382.382,0,0,0,.04.035l.018.015a.349.349,0,0,0,.053.029l.013.007a.378.378,0,0,0,.148.03H28.283a.374.374,0,0,0,.148-.03l.02-.011A.384.384,0,0,0,28.5,35.2l.022-.018a.346.346,0,0,0,.036-.032l.006-.006s0-.005,0-.008a.377.377,0,0,0,.069-.115A.138.138,0,0,0,28.641,35ZM7.719,22.373l6.355,5.8L7.719,34.028Zm13.024,5.52a.36.36,0,0,0-.076.056c-.008.009-.011.021-.018.03l-2.837,2.591-9.5-8.676h19Zm-6.11.8,2.924,2.671a.377.377,0,0,0,.509,0l2.888-2.638,6.354,5.789h-19Zm6.882-.478,6.391-5.837V34.034Z" transform="translate(-6.964 -21.139)"/></svg>